<svg width="43" height="43" viewBox="0 0 43 43" fill="none" xmlns="http://www.w3.org/2000/svg">
<g clip-path="url(#clip0_2771_7860)">
<rect width="43" height="43" rx="21.5" fill="#3DCBB1"/>
<rect x="4.70312" y="4.70312" width="33.5938" height="33.5938" rx="16.7969" fill="#3DCBB1"/>
<path d="M22.0395 45.8292C13.8726 45.8292 7.95071 39.7138 7.95071 31.7405C7.95071 23.7671 13.8726 17.6517 22.0395 17.6517C26.9551 17.6517 31.2901 20.0901 33.6511 23.922L28.3097 27.0184C27.1099 24.9283 24.7876 23.6897 22.0395 23.6897C17.24 23.6897 14.1436 26.9023 14.1436 31.7405C14.1436 36.5786 17.24 39.7912 22.0395 39.7912C24.7876 39.7912 27.1486 38.5526 28.3097 36.4625L33.6511 39.5589C31.3288 43.3908 26.9938 45.8292 22.0395 45.8292Z" fill="white"/>
</g>
<defs>
<clipPath id="clip0_2771_7860">
<rect width="43" height="43" rx="21.5" fill="white"/>
</clipPath>
</defs>
</svg>
